<svg width="48" height="46" viewBox="0 0 48 46" fill="none" xmlns="http://www.w3.org/2000/svg">
<path fill-rule="evenodd" clip-rule="evenodd" d="M4.19336 24.2148C4.19336 13.2762 13.0609 4.40869 23.9995 4.40869C29.2524 4.40869 34.2901 6.4954 38.0045 10.2098C41.7189 13.9241 43.8056 18.9619 43.8056 24.2148C43.8056 35.1534 34.9381 44.0209 23.9995 44.0209C13.0609 44.0209 4.19336 35.1534 4.19336 24.2148ZM23.4647 31.3666L32.5161 19.4829V19.4235C32.9477 18.8574 33.0446 18.104 32.7702 17.4472C32.4957 16.7903 31.8917 16.3298 31.1857 16.239C30.4796 16.1483 29.7788 16.4411 29.3471 17.0071L21.8604 26.9102L18.632 22.7905C18.1968 22.2315 17.4965 21.9471 16.7948 22.0445C16.0931 22.1419 15.4966 22.6062 15.2301 23.2626C14.9636 23.919 15.0675 24.6677 15.5026 25.2267L20.3353 31.3864C20.7133 31.8647 21.2904 32.1423 21.9 32.139C22.513 32.1375 23.0908 31.8523 23.4647 31.3666Z" fill="#094352"/>
</svg>
