<svg width="49" height="45" viewBox="0 0 49 45" fill="none" xmlns="http://www.w3.org/2000/svg">
<path fill-rule="evenodd" clip-rule="evenodd" d="M24.5004 3.69336C13.5618 3.69336 4.69434 12.5609 4.69434 23.4995C4.69434 34.4381 13.5618 43.3056 24.5004 43.3056C35.4391 43.3056 44.3066 34.4381 44.3066 23.4995C44.3066 18.2466 42.2198 13.2088 38.5055 9.49443C34.7911 5.78007 29.7534 3.69336 24.5004 3.69336ZM24.5004 33.4025C23.4066 33.4025 22.5198 32.5158 22.5198 31.4219C22.5198 30.3281 23.4066 29.4413 24.5004 29.4413C25.5943 29.4413 26.4811 30.3281 26.4811 31.4219C26.4811 32.5158 25.5943 33.4025 24.5004 33.4025ZM24.5004 27.4607C25.5943 27.4607 26.4811 26.5739 26.4811 25.4801V15.577C26.4811 14.4832 25.5943 13.5964 24.5004 13.5964C23.4066 13.5964 22.5198 14.4832 22.5198 15.577V25.4801C22.5198 26.5739 23.4066 27.4607 24.5004 27.4607Z" fill="#DC343D"/>
</svg>
