<svg width="736" height="450" viewBox="0 0 736 450" fill="none" xmlns="http://www.w3.org/2000/svg">
<g clip-path="url(#clip0_4791_36060)">
<rect width="736" height="450" rx="10" fill="white"/>
<path d="M34.5 -89.457V157.151C34.5 163.948 40.0107 169.459 46.8081 169.459H50.0192C56.8166 169.459 62.3272 163.948 62.3272 157.151V122.905C62.3272 116.107 67.8379 110.597 74.6353 110.597C81.4327 110.597 86.9434 105.086 86.9434 98.2887V-74.2079" stroke="#094352" stroke-width="7.7115" stroke-miterlimit="10"/>
<path d="M659.057 -49.8008V262.37C659.057 278.567 666.997 291.696 676.794 291.696H695.771C705.567 291.696 713.508 304.825 713.508 321.022V589.862" stroke="#FF9000" stroke-width="7.7115" stroke-miterlimit="10"/>
<path d="M-52.3586 337.279H94.6998C99.9747 337.279 104.252 341.556 104.252 346.831C104.252 352.106 99.9747 356.383 94.6998 356.383H-55.251" stroke="#FF4651" stroke-width="7.7115" stroke-miterlimit="10"/>
<path d="M0 391.828H180.397C186.402 391.828 192.163 389.444 196.407 385.197C205.251 376.354 219.587 376.354 228.431 385.197L228.588 385.355C232.835 389.601 238.594 391.986 244.599 391.986H991.801" stroke="#25C290" stroke-width="7.7115" stroke-miterlimit="10"/>
<path d="M476.569 476.785C532.732 442.673 494.526 390.066 460.265 399.503C431.378 407.46 441.65 450.711 471.774 439.59C508.629 425.985 496.63 367.91 450.244 360.185C401.618 352.092 371.897 387.144 373.922 414.15C376.179 444.216 418.635 429.569 408.615 405.669C398.594 381.769 349.427 386.968 329.21 411.067C303.657 441.525 323.044 476.785 323.044 476.785" stroke="#694DE3" stroke-width="7.7115" stroke-miterlimit="10"/>
</g>
<defs>
<clipPath id="clip0_4791_36060">
<rect width="736" height="450" rx="10" fill="white"/>
</clipPath>
</defs>
</svg>
